<mxfile host="Electron" modified="2023-12-26T11:37:37.489Z" agent="Mozilla/5.0 (X11; Linux x86_64) AppleWebKit/537.36 (KHTML, like Gecko) draw.io/22.1.2 Chrome/114.0.5735.289 Electron/25.9.4 Safari/537.36" etag="sihm-FdQnUNR4ohXMbPM" version="22.1.2" type="device" pages="2">
  <diagram name="ERD" id="QXSBp6Sev5KqUJJjuFbe">
    <mxGraphModel dx="1194" dy="659" grid="1" gridSize="10" guides="1" tooltips="1" connect="1" arrows="1" fold="1" page="1" pageScale="1" pageWidth="850" pageHeight="1100" math="0" shadow="0">
      <root>
        <mxCell id="0" />
        <mxCell id="1" parent="0" />
        <mxCell id="taO_8jyGplsNzZ5r7GD8-1" value="Пользователь" style="rounded=0;whiteSpace=wrap;html=1;fontSize=9;" parent="1" vertex="1">
          <mxGeometry x="280" y="690" width="120" height="60" as="geometry" />
        </mxCell>
        <mxCell id="taO_8jyGplsNzZ5r7GD8-7" value="&lt;font style=&quot;font-size: 10px;&quot;&gt;должен&lt;br&gt;присутствовать&lt;/font&gt;" style="shape=rhombus;perimeter=rhombusPerimeter;whiteSpace=wrap;html=1;align=center;" parent="1" vertex="1">
          <mxGeometry x="520" y="690" width="120" height="60" as="geometry" />
        </mxCell>
        <mxCell id="taO_8jyGplsNzZ5r7GD8-9" value="" style="endArrow=none;html=1;rounded=0;" parent="1" source="taO_8jyGplsNzZ5r7GD8-7" target="Gz-UhnwCJO_V1IBu6Ysi-1" edge="1">
          <mxGeometry relative="1" as="geometry">
            <mxPoint x="610" y="640" as="sourcePoint" />
            <mxPoint x="760" y="720" as="targetPoint" />
          </mxGeometry>
        </mxCell>
        <mxCell id="taO_8jyGplsNzZ5r7GD8-10" value="M" style="resizable=0;html=1;whiteSpace=wrap;align=right;verticalAlign=bottom;" parent="taO_8jyGplsNzZ5r7GD8-9" connectable="0" vertex="1">
          <mxGeometry x="1" relative="1" as="geometry">
            <mxPoint x="-5" as="offset" />
          </mxGeometry>
        </mxCell>
        <mxCell id="taO_8jyGplsNzZ5r7GD8-11" value="" style="endArrow=none;html=1;rounded=0;" parent="1" source="taO_8jyGplsNzZ5r7GD8-7" target="taO_8jyGplsNzZ5r7GD8-1" edge="1">
          <mxGeometry relative="1" as="geometry">
            <mxPoint x="510" y="680" as="sourcePoint" />
            <mxPoint x="670" y="680" as="targetPoint" />
          </mxGeometry>
        </mxCell>
        <mxCell id="taO_8jyGplsNzZ5r7GD8-12" value="M" style="resizable=0;html=1;whiteSpace=wrap;align=right;verticalAlign=bottom;" parent="taO_8jyGplsNzZ5r7GD8-11" connectable="0" vertex="1">
          <mxGeometry x="1" relative="1" as="geometry">
            <mxPoint x="16" as="offset" />
          </mxGeometry>
        </mxCell>
        <mxCell id="taO_8jyGplsNzZ5r7GD8-14" value="логин" style="ellipse;whiteSpace=wrap;html=1;align=center;" parent="1" vertex="1">
          <mxGeometry x="280" y="540" width="120" height="50" as="geometry" />
        </mxCell>
        <mxCell id="taO_8jyGplsNzZ5r7GD8-15" value="личные данные" style="ellipse;whiteSpace=wrap;html=1;align=center;" parent="1" vertex="1">
          <mxGeometry x="160" y="830" width="120" height="50" as="geometry" />
        </mxCell>
        <mxCell id="taO_8jyGplsNzZ5r7GD8-16" value="пароль" style="ellipse;whiteSpace=wrap;html=1;align=center;" parent="1" vertex="1">
          <mxGeometry x="400" y="590" width="120" height="50" as="geometry" />
        </mxCell>
        <mxCell id="taO_8jyGplsNzZ5r7GD8-17" value="дополнительные свойства" style="ellipse;whiteSpace=wrap;html=1;align=center;" parent="1" vertex="1">
          <mxGeometry x="280" y="880" width="120" height="50" as="geometry" />
        </mxCell>
        <mxCell id="taO_8jyGplsNzZ5r7GD8-18" value="внешние идентификаторы" style="ellipse;whiteSpace=wrap;html=1;align=center;" parent="1" vertex="1">
          <mxGeometry x="400" y="830" width="120" height="50" as="geometry" />
        </mxCell>
        <mxCell id="taO_8jyGplsNzZ5r7GD8-19" value="" style="endArrow=none;html=1;rounded=0;" parent="1" source="taO_8jyGplsNzZ5r7GD8-1" target="taO_8jyGplsNzZ5r7GD8-15" edge="1">
          <mxGeometry relative="1" as="geometry">
            <mxPoint x="400" y="820" as="sourcePoint" />
            <mxPoint x="560" y="820" as="targetPoint" />
          </mxGeometry>
        </mxCell>
        <mxCell id="taO_8jyGplsNzZ5r7GD8-20" value="" style="endArrow=none;html=1;rounded=0;" parent="1" source="taO_8jyGplsNzZ5r7GD8-1" target="taO_8jyGplsNzZ5r7GD8-14" edge="1">
          <mxGeometry relative="1" as="geometry">
            <mxPoint x="400" y="820" as="sourcePoint" />
            <mxPoint x="560" y="820" as="targetPoint" />
          </mxGeometry>
        </mxCell>
        <mxCell id="taO_8jyGplsNzZ5r7GD8-21" value="" style="endArrow=none;html=1;rounded=0;" parent="1" source="taO_8jyGplsNzZ5r7GD8-1" target="taO_8jyGplsNzZ5r7GD8-16" edge="1">
          <mxGeometry relative="1" as="geometry">
            <mxPoint x="400" y="820" as="sourcePoint" />
            <mxPoint x="560" y="820" as="targetPoint" />
          </mxGeometry>
        </mxCell>
        <mxCell id="taO_8jyGplsNzZ5r7GD8-22" value="" style="endArrow=none;html=1;rounded=0;" parent="1" source="taO_8jyGplsNzZ5r7GD8-1" target="taO_8jyGplsNzZ5r7GD8-18" edge="1">
          <mxGeometry relative="1" as="geometry">
            <mxPoint x="400" y="820" as="sourcePoint" />
            <mxPoint x="560" y="820" as="targetPoint" />
          </mxGeometry>
        </mxCell>
        <mxCell id="taO_8jyGplsNzZ5r7GD8-23" value="" style="endArrow=none;html=1;rounded=0;" parent="1" source="taO_8jyGplsNzZ5r7GD8-1" target="taO_8jyGplsNzZ5r7GD8-17" edge="1">
          <mxGeometry relative="1" as="geometry">
            <mxPoint x="400" y="820" as="sourcePoint" />
            <mxPoint x="560" y="820" as="targetPoint" />
          </mxGeometry>
        </mxCell>
        <mxCell id="taO_8jyGplsNzZ5r7GD8-24" value="идентификатор" style="ellipse;whiteSpace=wrap;html=1;align=center;fontStyle=4;" parent="1" vertex="1">
          <mxGeometry x="160" y="590" width="120" height="50" as="geometry" />
        </mxCell>
        <mxCell id="taO_8jyGplsNzZ5r7GD8-25" value="" style="endArrow=none;html=1;rounded=0;" parent="1" source="taO_8jyGplsNzZ5r7GD8-24" target="taO_8jyGplsNzZ5r7GD8-1" edge="1">
          <mxGeometry relative="1" as="geometry">
            <mxPoint x="240" y="630" as="sourcePoint" />
            <mxPoint x="400" y="630" as="targetPoint" />
          </mxGeometry>
        </mxCell>
        <mxCell id="taO_8jyGplsNzZ5r7GD8-26" value="пользователь" style="ellipse;whiteSpace=wrap;html=1;align=center;fontStyle=4;" parent="1" vertex="1">
          <mxGeometry x="840" y="590" width="120" height="50" as="geometry" />
        </mxCell>
        <mxCell id="taO_8jyGplsNzZ5r7GD8-27" value="идентификатор" style="ellipse;whiteSpace=wrap;html=1;align=center;fontStyle=4;" parent="1" vertex="1">
          <mxGeometry x="680" y="590" width="120" height="50" as="geometry" />
        </mxCell>
        <mxCell id="taO_8jyGplsNzZ5r7GD8-28" value="дополнительные свойства" style="ellipse;whiteSpace=wrap;html=1;align=center;" parent="1" vertex="1">
          <mxGeometry x="840" y="800" width="120" height="50" as="geometry" />
        </mxCell>
        <mxCell id="taO_8jyGplsNzZ5r7GD8-29" value="текущее состояние" style="ellipse;whiteSpace=wrap;html=1;align=center;" parent="1" vertex="1">
          <mxGeometry x="680" y="800" width="120" height="50" as="geometry" />
        </mxCell>
        <mxCell id="taO_8jyGplsNzZ5r7GD8-30" value="" style="endArrow=none;html=1;rounded=0;" parent="1" source="taO_8jyGplsNzZ5r7GD8-27" target="Gz-UhnwCJO_V1IBu6Ysi-1" edge="1">
          <mxGeometry relative="1" as="geometry">
            <mxPoint x="680" y="690" as="sourcePoint" />
            <mxPoint x="797.1428571428571" y="690" as="targetPoint" />
          </mxGeometry>
        </mxCell>
        <mxCell id="taO_8jyGplsNzZ5r7GD8-31" value="" style="endArrow=none;html=1;rounded=0;" parent="1" source="taO_8jyGplsNzZ5r7GD8-26" target="Gz-UhnwCJO_V1IBu6Ysi-1" edge="1">
          <mxGeometry relative="1" as="geometry">
            <mxPoint x="680" y="690" as="sourcePoint" />
            <mxPoint x="842.8571428571429" y="690" as="targetPoint" />
          </mxGeometry>
        </mxCell>
        <mxCell id="taO_8jyGplsNzZ5r7GD8-32" value="" style="endArrow=none;html=1;rounded=0;" parent="1" source="Gz-UhnwCJO_V1IBu6Ysi-1" target="taO_8jyGplsNzZ5r7GD8-29" edge="1">
          <mxGeometry relative="1" as="geometry">
            <mxPoint x="797.1428571428571" y="750" as="sourcePoint" />
            <mxPoint x="840" y="690" as="targetPoint" />
          </mxGeometry>
        </mxCell>
        <mxCell id="taO_8jyGplsNzZ5r7GD8-33" value="" style="endArrow=none;html=1;rounded=0;" parent="1" source="Gz-UhnwCJO_V1IBu6Ysi-1" target="taO_8jyGplsNzZ5r7GD8-28" edge="1">
          <mxGeometry relative="1" as="geometry">
            <mxPoint x="842.8571428571429" y="750" as="sourcePoint" />
            <mxPoint x="840" y="690" as="targetPoint" />
          </mxGeometry>
        </mxCell>
        <mxCell id="IibQWqoaKFXZw-1_gCbb-1" value="группы" style="ellipse;whiteSpace=wrap;html=1;align=center;" parent="1" vertex="1">
          <mxGeometry x="60" y="695" width="120" height="50" as="geometry" />
        </mxCell>
        <mxCell id="IibQWqoaKFXZw-1_gCbb-2" value="" style="endArrow=none;html=1;rounded=0;" parent="1" source="taO_8jyGplsNzZ5r7GD8-1" target="IibQWqoaKFXZw-1_gCbb-1" edge="1">
          <mxGeometry relative="1" as="geometry">
            <mxPoint x="323" y="760" as="sourcePoint" />
            <mxPoint x="251" y="842" as="targetPoint" />
          </mxGeometry>
        </mxCell>
        <mxCell id="Gz-UhnwCJO_V1IBu6Ysi-1" value="Контекст диалога" style="rounded=0;whiteSpace=wrap;html=1;fontSize=9;" parent="1" vertex="1">
          <mxGeometry x="760" y="690" width="120" height="60" as="geometry" />
        </mxCell>
      </root>
    </mxGraphModel>
  </diagram>
  <diagram id="XrInTve3XR8gXIuvNYD3" name="IDEF1X">
    <mxGraphModel dx="1194" dy="659" grid="1" gridSize="10" guides="1" tooltips="1" connect="1" arrows="1" fold="1" page="1" pageScale="1" pageWidth="850" pageHeight="1100" math="0" shadow="0">
      <root>
        <mxCell id="0" />
        <mxCell id="1" parent="0" />
        <mxCell id="VgegklDGePFfX6aJZ7jm-14" value="" style="group" parent="1" vertex="1" connectable="0">
          <mxGeometry x="190" y="250" width="140" height="120" as="geometry" />
        </mxCell>
        <mxCell id="VgegklDGePFfX6aJZ7jm-5" value="" style="swimlane;fontStyle=0;childLayout=stackLayout;horizontal=1;startSize=0;horizontalStack=0;resizeParent=1;resizeParentMax=0;resizeLast=0;collapsible=1;marginBottom=0;" parent="VgegklDGePFfX6aJZ7jm-14" vertex="1">
          <mxGeometry width="140" height="120" as="geometry" />
        </mxCell>
        <mxCell id="VgegklDGePFfX6aJZ7jm-7" value="идентификатор" style="text;strokeColor=default;fillColor=none;align=left;verticalAlign=middle;spacingLeft=4;spacingRight=4;overflow=hidden;points=[[0,0.5],[1,0.5]];portConstraint=eastwest;rotatable=0;strokeWidth=1;perimeterSpacing=0;spacing=2;shadow=0;" parent="VgegklDGePFfX6aJZ7jm-5" vertex="1">
          <mxGeometry width="140" height="30" as="geometry" />
        </mxCell>
        <mxCell id="VgegklDGePFfX6aJZ7jm-8" value="логин" style="text;strokeColor=none;fillColor=none;align=left;verticalAlign=middle;spacingLeft=4;spacingRight=4;overflow=hidden;points=[[0,0.5],[1,0.5]];portConstraint=eastwest;rotatable=0;" parent="VgegklDGePFfX6aJZ7jm-5" vertex="1">
          <mxGeometry y="30" width="140" height="30" as="geometry" />
        </mxCell>
        <mxCell id="VgegklDGePFfX6aJZ7jm-9" value="пароль" style="text;strokeColor=none;fillColor=none;align=left;verticalAlign=middle;spacingLeft=4;spacingRight=4;overflow=hidden;points=[[0,0.5],[1,0.5]];portConstraint=eastwest;rotatable=0;" parent="VgegklDGePFfX6aJZ7jm-5" vertex="1">
          <mxGeometry y="60" width="140" height="30" as="geometry" />
        </mxCell>
        <mxCell id="VgegklDGePFfX6aJZ7jm-12" style="text;strokeColor=none;fillColor=none;align=left;verticalAlign=middle;spacingLeft=4;spacingRight=4;overflow=hidden;points=[[0,0.5],[1,0.5]];portConstraint=eastwest;rotatable=0;" parent="VgegklDGePFfX6aJZ7jm-5" vertex="1">
          <mxGeometry y="90" width="140" height="30" as="geometry" />
        </mxCell>
        <mxCell id="VgegklDGePFfX6aJZ7jm-13" value="пользователь" style="rounded=0;whiteSpace=wrap;html=1;strokeColor=default;" parent="VgegklDGePFfX6aJZ7jm-14" vertex="1">
          <mxGeometry y="90" width="100" height="30" as="geometry" />
        </mxCell>
        <mxCell id="zEk0Qq_C4hLJaT2vZp64-1" value="" style="group" parent="1" vertex="1" connectable="0">
          <mxGeometry x="190" y="471" width="210" height="189" as="geometry" />
        </mxCell>
        <mxCell id="zEk0Qq_C4hLJaT2vZp64-2" value="" style="swimlane;fontStyle=0;childLayout=stackLayout;horizontal=1;startSize=0;horizontalStack=0;resizeParent=1;resizeParentMax=0;resizeLast=0;collapsible=1;marginBottom=0;" parent="zEk0Qq_C4hLJaT2vZp64-1" vertex="1">
          <mxGeometry x="-180" y="19" width="140" height="90" as="geometry" />
        </mxCell>
        <mxCell id="zEk0Qq_C4hLJaT2vZp64-29" value="пользователь" style="text;strokeColor=none;fillColor=none;align=left;verticalAlign=middle;spacingLeft=4;spacingRight=4;overflow=hidden;points=[[0,0.5],[1,0.5]];portConstraint=eastwest;rotatable=0;strokeWidth=1;perimeterSpacing=0;spacing=2;shadow=0;" parent="zEk0Qq_C4hLJaT2vZp64-2" vertex="1">
          <mxGeometry width="140" height="30" as="geometry" />
        </mxCell>
        <mxCell id="zEk0Qq_C4hLJaT2vZp64-4" value="название" style="text;strokeColor=none;fillColor=none;align=left;verticalAlign=middle;spacingLeft=4;spacingRight=4;overflow=hidden;points=[[0,0.5],[1,0.5]];portConstraint=eastwest;rotatable=0;" parent="zEk0Qq_C4hLJaT2vZp64-2" vertex="1">
          <mxGeometry y="30" width="140" height="30" as="geometry" />
        </mxCell>
        <mxCell id="zEk0Qq_C4hLJaT2vZp64-6" style="text;strokeColor=none;fillColor=none;align=left;verticalAlign=middle;spacingLeft=4;spacingRight=4;overflow=hidden;points=[[0,0.5],[1,0.5]];portConstraint=eastwest;rotatable=0;" parent="zEk0Qq_C4hLJaT2vZp64-2" vertex="1">
          <mxGeometry y="60" width="140" height="30" as="geometry" />
        </mxCell>
        <mxCell id="zEk0Qq_C4hLJaT2vZp64-7" value="группы_пользователя" style="rounded=0;whiteSpace=wrap;html=1;strokeColor=default;" parent="zEk0Qq_C4hLJaT2vZp64-1" vertex="1">
          <mxGeometry x="-180" y="79" width="130" height="30" as="geometry" />
        </mxCell>
        <mxCell id="zEk0Qq_C4hLJaT2vZp64-22" value="" style="group" parent="zEk0Qq_C4hLJaT2vZp64-1" vertex="1" connectable="0">
          <mxGeometry x="160" y="-1" width="200" height="130" as="geometry" />
        </mxCell>
        <mxCell id="zEk0Qq_C4hLJaT2vZp64-23" value="" style="swimlane;fontStyle=0;childLayout=stackLayout;horizontal=1;startSize=0;horizontalStack=0;resizeParent=1;resizeParentMax=0;resizeLast=0;collapsible=1;marginBottom=0;" parent="zEk0Qq_C4hLJaT2vZp64-22" vertex="1">
          <mxGeometry width="180" height="130" as="geometry" />
        </mxCell>
        <mxCell id="zEk0Qq_C4hLJaT2vZp64-24" value="пользователь" style="text;strokeColor=none;fillColor=none;align=left;verticalAlign=middle;spacingLeft=4;spacingRight=4;overflow=hidden;points=[[0,0.5],[1,0.5]];portConstraint=eastwest;rotatable=0;strokeWidth=1;perimeterSpacing=0;spacing=2;shadow=0;" parent="zEk0Qq_C4hLJaT2vZp64-23" vertex="1">
          <mxGeometry width="180" height="30" as="geometry" />
        </mxCell>
        <mxCell id="zEk0Qq_C4hLJaT2vZp64-25" value="ключ" style="text;strokeColor=none;fillColor=none;align=left;verticalAlign=middle;spacingLeft=4;spacingRight=4;overflow=hidden;points=[[0,0.5],[1,0.5]];portConstraint=eastwest;rotatable=0;" parent="zEk0Qq_C4hLJaT2vZp64-23" vertex="1">
          <mxGeometry y="30" width="180" height="30" as="geometry" />
        </mxCell>
        <mxCell id="zEk0Qq_C4hLJaT2vZp64-37" value="" style="line;strokeWidth=1;rotatable=0;dashed=0;labelPosition=right;align=left;verticalAlign=middle;spacingTop=0;spacingLeft=6;points=[];portConstraint=eastwest;" parent="zEk0Qq_C4hLJaT2vZp64-23" vertex="1">
          <mxGeometry y="60" width="180" height="10" as="geometry" />
        </mxCell>
        <mxCell id="zEk0Qq_C4hLJaT2vZp64-26" value="значение" style="text;strokeColor=none;fillColor=none;align=left;verticalAlign=middle;spacingLeft=4;spacingRight=4;overflow=hidden;points=[[0,0.5],[1,0.5]];portConstraint=eastwest;rotatable=0;" parent="zEk0Qq_C4hLJaT2vZp64-23" vertex="1">
          <mxGeometry y="70" width="180" height="30" as="geometry" />
        </mxCell>
        <mxCell id="zEk0Qq_C4hLJaT2vZp64-27" style="text;strokeColor=none;fillColor=none;align=left;verticalAlign=middle;spacingLeft=4;spacingRight=4;overflow=hidden;points=[[0,0.5],[1,0.5]];portConstraint=eastwest;rotatable=0;" parent="zEk0Qq_C4hLJaT2vZp64-23" vertex="1">
          <mxGeometry y="100" width="180" height="30" as="geometry" />
        </mxCell>
        <mxCell id="zEk0Qq_C4hLJaT2vZp64-28" value="доп_свойства_пользователя" style="rounded=0;whiteSpace=wrap;html=1;strokeColor=default;" parent="zEk0Qq_C4hLJaT2vZp64-22" vertex="1">
          <mxGeometry y="100" width="170" height="30" as="geometry" />
        </mxCell>
        <mxCell id="zEk0Qq_C4hLJaT2vZp64-8" value="" style="group" parent="1" vertex="1" connectable="0">
          <mxGeometry width="140" height="150" as="geometry" />
        </mxCell>
        <mxCell id="zEk0Qq_C4hLJaT2vZp64-9" value="" style="swimlane;fontStyle=0;childLayout=stackLayout;horizontal=1;startSize=0;horizontalStack=0;resizeParent=1;resizeParentMax=0;resizeLast=0;collapsible=1;marginBottom=0;" parent="zEk0Qq_C4hLJaT2vZp64-8" vertex="1">
          <mxGeometry width="140" height="130" as="geometry" />
        </mxCell>
        <mxCell id="zEk0Qq_C4hLJaT2vZp64-31" value="пользователь" style="text;strokeColor=none;fillColor=none;align=left;verticalAlign=middle;spacingLeft=4;spacingRight=4;overflow=hidden;points=[[0,0.5],[1,0.5]];portConstraint=eastwest;rotatable=0;strokeWidth=1;perimeterSpacing=0;spacing=2;shadow=0;" parent="zEk0Qq_C4hLJaT2vZp64-9" vertex="1">
          <mxGeometry width="140" height="30" as="geometry" />
        </mxCell>
        <mxCell id="zEk0Qq_C4hLJaT2vZp64-11" value="ключ" style="text;strokeColor=none;fillColor=none;align=left;verticalAlign=middle;spacingLeft=4;spacingRight=4;overflow=hidden;points=[[0,0.5],[1,0.5]];portConstraint=eastwest;rotatable=0;" parent="zEk0Qq_C4hLJaT2vZp64-9" vertex="1">
          <mxGeometry y="30" width="140" height="30" as="geometry" />
        </mxCell>
        <mxCell id="zEk0Qq_C4hLJaT2vZp64-35" value="" style="line;strokeWidth=1;rotatable=0;dashed=0;labelPosition=right;align=left;verticalAlign=middle;spacingTop=0;spacingLeft=6;points=[];portConstraint=eastwest;" parent="zEk0Qq_C4hLJaT2vZp64-9" vertex="1">
          <mxGeometry y="60" width="140" height="10" as="geometry" />
        </mxCell>
        <mxCell id="zEk0Qq_C4hLJaT2vZp64-12" value="значение" style="text;strokeColor=none;fillColor=none;align=left;verticalAlign=middle;spacingLeft=4;spacingRight=4;overflow=hidden;points=[[0,0.5],[1,0.5]];portConstraint=eastwest;rotatable=0;" parent="zEk0Qq_C4hLJaT2vZp64-9" vertex="1">
          <mxGeometry y="70" width="140" height="30" as="geometry" />
        </mxCell>
        <mxCell id="zEk0Qq_C4hLJaT2vZp64-13" style="text;strokeColor=none;fillColor=none;align=left;verticalAlign=middle;spacingLeft=4;spacingRight=4;overflow=hidden;points=[[0,0.5],[1,0.5]];portConstraint=eastwest;rotatable=0;" parent="zEk0Qq_C4hLJaT2vZp64-9" vertex="1">
          <mxGeometry y="100" width="140" height="30" as="geometry" />
        </mxCell>
        <mxCell id="zEk0Qq_C4hLJaT2vZp64-14" value="данные_пользователя" style="rounded=0;whiteSpace=wrap;html=1;strokeColor=default;" parent="zEk0Qq_C4hLJaT2vZp64-8" vertex="1">
          <mxGeometry y="100" width="130" height="30" as="geometry" />
        </mxCell>
        <mxCell id="zEk0Qq_C4hLJaT2vZp64-15" value="" style="group" parent="1" vertex="1" connectable="0">
          <mxGeometry x="250" width="160" height="150" as="geometry" />
        </mxCell>
        <mxCell id="zEk0Qq_C4hLJaT2vZp64-16" value="" style="swimlane;fontStyle=0;childLayout=stackLayout;horizontal=1;startSize=0;horizontalStack=0;resizeParent=1;resizeParentMax=0;resizeLast=0;collapsible=1;marginBottom=0;" parent="zEk0Qq_C4hLJaT2vZp64-15" vertex="1">
          <mxGeometry x="110" width="160" height="130" as="geometry" />
        </mxCell>
        <mxCell id="zEk0Qq_C4hLJaT2vZp64-32" value="пользователь" style="text;strokeColor=none;fillColor=none;align=left;verticalAlign=middle;spacingLeft=4;spacingRight=4;overflow=hidden;points=[[0,0.5],[1,0.5]];portConstraint=eastwest;rotatable=0;strokeWidth=1;perimeterSpacing=0;spacing=2;shadow=0;" parent="zEk0Qq_C4hLJaT2vZp64-16" vertex="1">
          <mxGeometry width="160" height="30" as="geometry" />
        </mxCell>
        <mxCell id="zEk0Qq_C4hLJaT2vZp64-17" value="источник" style="text;strokeColor=none;fillColor=none;align=left;verticalAlign=middle;spacingLeft=4;spacingRight=4;overflow=hidden;points=[[0,0.5],[1,0.5]];portConstraint=eastwest;rotatable=0;strokeWidth=1;perimeterSpacing=0;spacing=2;shadow=0;" parent="zEk0Qq_C4hLJaT2vZp64-16" vertex="1">
          <mxGeometry y="30" width="160" height="30" as="geometry" />
        </mxCell>
        <mxCell id="zEk0Qq_C4hLJaT2vZp64-36" value="" style="line;strokeWidth=1;rotatable=0;dashed=0;labelPosition=right;align=left;verticalAlign=middle;spacingTop=0;spacingLeft=6;points=[];portConstraint=eastwest;" parent="zEk0Qq_C4hLJaT2vZp64-16" vertex="1">
          <mxGeometry y="60" width="160" height="10" as="geometry" />
        </mxCell>
        <mxCell id="zEk0Qq_C4hLJaT2vZp64-19" value="значение" style="text;strokeColor=none;fillColor=none;align=left;verticalAlign=middle;spacingLeft=4;spacingRight=4;overflow=hidden;points=[[0,0.5],[1,0.5]];portConstraint=eastwest;rotatable=0;" parent="zEk0Qq_C4hLJaT2vZp64-16" vertex="1">
          <mxGeometry y="70" width="160" height="30" as="geometry" />
        </mxCell>
        <mxCell id="zEk0Qq_C4hLJaT2vZp64-20" style="text;strokeColor=none;fillColor=none;align=left;verticalAlign=middle;spacingLeft=4;spacingRight=4;overflow=hidden;points=[[0,0.5],[1,0.5]];portConstraint=eastwest;rotatable=0;" parent="zEk0Qq_C4hLJaT2vZp64-16" vertex="1">
          <mxGeometry y="100" width="160" height="30" as="geometry" />
        </mxCell>
        <mxCell id="zEk0Qq_C4hLJaT2vZp64-21" value="вн_идент_пользователя" style="rounded=0;whiteSpace=wrap;html=1;strokeColor=default;" parent="zEk0Qq_C4hLJaT2vZp64-15" vertex="1">
          <mxGeometry x="110" y="100" width="150" height="30" as="geometry" />
        </mxCell>
        <mxCell id="zEk0Qq_C4hLJaT2vZp64-38" value="" style="group" parent="1" vertex="1" connectable="0">
          <mxGeometry x="560" y="240" width="140" height="120" as="geometry" />
        </mxCell>
        <mxCell id="zEk0Qq_C4hLJaT2vZp64-39" value="" style="swimlane;fontStyle=0;childLayout=stackLayout;horizontal=1;startSize=0;horizontalStack=0;resizeParent=1;resizeParentMax=0;resizeLast=0;collapsible=1;marginBottom=0;" parent="zEk0Qq_C4hLJaT2vZp64-38" vertex="1">
          <mxGeometry width="140" height="130" as="geometry" />
        </mxCell>
        <mxCell id="zEk0Qq_C4hLJaT2vZp64-40" value="идентификатор" style="text;strokeColor=none;fillColor=none;align=left;verticalAlign=middle;spacingLeft=4;spacingRight=4;overflow=hidden;points=[[0,0.5],[1,0.5]];portConstraint=eastwest;rotatable=0;strokeWidth=1;perimeterSpacing=0;spacing=2;shadow=0;" parent="zEk0Qq_C4hLJaT2vZp64-39" vertex="1">
          <mxGeometry width="140" height="30" as="geometry" />
        </mxCell>
        <mxCell id="zEk0Qq_C4hLJaT2vZp64-46" value="пользователь" style="text;strokeColor=none;fillColor=none;align=left;verticalAlign=middle;spacingLeft=4;spacingRight=4;overflow=hidden;points=[[0,0.5],[1,0.5]];portConstraint=eastwest;rotatable=0;strokeWidth=1;perimeterSpacing=0;spacing=2;shadow=0;" parent="zEk0Qq_C4hLJaT2vZp64-39" vertex="1">
          <mxGeometry y="30" width="140" height="30" as="geometry" />
        </mxCell>
        <mxCell id="zEk0Qq_C4hLJaT2vZp64-45" value="" style="line;strokeWidth=1;rotatable=0;dashed=0;labelPosition=right;align=left;verticalAlign=middle;spacingTop=0;spacingLeft=6;points=[];portConstraint=eastwest;" parent="zEk0Qq_C4hLJaT2vZp64-39" vertex="1">
          <mxGeometry y="60" width="140" height="10" as="geometry" />
        </mxCell>
        <mxCell id="zEk0Qq_C4hLJaT2vZp64-41" value="текущее состояние" style="text;strokeColor=none;fillColor=none;align=left;verticalAlign=middle;spacingLeft=4;spacingRight=4;overflow=hidden;points=[[0,0.5],[1,0.5]];portConstraint=eastwest;rotatable=0;" parent="zEk0Qq_C4hLJaT2vZp64-39" vertex="1">
          <mxGeometry y="70" width="140" height="30" as="geometry" />
        </mxCell>
        <mxCell id="zEk0Qq_C4hLJaT2vZp64-43" style="text;strokeColor=none;fillColor=none;align=left;verticalAlign=middle;spacingLeft=4;spacingRight=4;overflow=hidden;points=[[0,0.5],[1,0.5]];portConstraint=eastwest;rotatable=0;" parent="zEk0Qq_C4hLJaT2vZp64-39" vertex="1">
          <mxGeometry y="100" width="140" height="30" as="geometry" />
        </mxCell>
        <mxCell id="zEk0Qq_C4hLJaT2vZp64-44" value="контекст диалога" style="rounded=0;whiteSpace=wrap;html=1;strokeColor=default;" parent="zEk0Qq_C4hLJaT2vZp64-38" vertex="1">
          <mxGeometry y="100" width="100" height="30" as="geometry" />
        </mxCell>
        <mxCell id="zEk0Qq_C4hLJaT2vZp64-47" value="" style="group" parent="1" vertex="1" connectable="0">
          <mxGeometry x="650" y="480" width="200" height="130" as="geometry" />
        </mxCell>
        <mxCell id="zEk0Qq_C4hLJaT2vZp64-48" value="" style="swimlane;fontStyle=0;childLayout=stackLayout;horizontal=1;startSize=0;horizontalStack=0;resizeParent=1;resizeParentMax=0;resizeLast=0;collapsible=1;marginBottom=0;" parent="zEk0Qq_C4hLJaT2vZp64-47" vertex="1">
          <mxGeometry width="170" height="130" as="geometry" />
        </mxCell>
        <mxCell id="zEk0Qq_C4hLJaT2vZp64-49" value="контекст" style="text;strokeColor=none;fillColor=none;align=left;verticalAlign=middle;spacingLeft=4;spacingRight=4;overflow=hidden;points=[[0,0.5],[1,0.5]];portConstraint=eastwest;rotatable=0;strokeWidth=1;perimeterSpacing=0;spacing=2;shadow=0;" parent="zEk0Qq_C4hLJaT2vZp64-48" vertex="1">
          <mxGeometry width="170" height="30" as="geometry" />
        </mxCell>
        <mxCell id="zEk0Qq_C4hLJaT2vZp64-51" value="ключ" style="text;strokeColor=none;fillColor=none;align=left;verticalAlign=middle;spacingLeft=4;spacingRight=4;overflow=hidden;points=[[0,0.5],[1,0.5]];portConstraint=eastwest;rotatable=0;" parent="zEk0Qq_C4hLJaT2vZp64-48" vertex="1">
          <mxGeometry y="30" width="170" height="30" as="geometry" />
        </mxCell>
        <mxCell id="zEk0Qq_C4hLJaT2vZp64-50" value="" style="line;strokeWidth=1;rotatable=0;dashed=0;labelPosition=right;align=left;verticalAlign=middle;spacingTop=0;spacingLeft=6;points=[];portConstraint=eastwest;" parent="zEk0Qq_C4hLJaT2vZp64-48" vertex="1">
          <mxGeometry y="60" width="170" height="10" as="geometry" />
        </mxCell>
        <mxCell id="zEk0Qq_C4hLJaT2vZp64-52" value="значение" style="text;strokeColor=none;fillColor=none;align=left;verticalAlign=middle;spacingLeft=4;spacingRight=4;overflow=hidden;points=[[0,0.5],[1,0.5]];portConstraint=eastwest;rotatable=0;" parent="zEk0Qq_C4hLJaT2vZp64-48" vertex="1">
          <mxGeometry y="70" width="170" height="30" as="geometry" />
        </mxCell>
        <mxCell id="zEk0Qq_C4hLJaT2vZp64-53" style="text;strokeColor=none;fillColor=none;align=left;verticalAlign=middle;spacingLeft=4;spacingRight=4;overflow=hidden;points=[[0,0.5],[1,0.5]];portConstraint=eastwest;rotatable=0;" parent="zEk0Qq_C4hLJaT2vZp64-48" vertex="1">
          <mxGeometry y="100" width="170" height="30" as="geometry" />
        </mxCell>
        <mxCell id="zEk0Qq_C4hLJaT2vZp64-54" value="доп_свойства_контекста" style="rounded=0;whiteSpace=wrap;html=1;strokeColor=default;" parent="zEk0Qq_C4hLJaT2vZp64-47" vertex="1">
          <mxGeometry y="100" width="150" height="30" as="geometry" />
        </mxCell>
        <mxCell id="zEk0Qq_C4hLJaT2vZp64-58" value="" style="endArrow=oval;html=1;rounded=0;endFill=1;edgeStyle=orthogonalEdgeStyle;" parent="1" source="zEk0Qq_C4hLJaT2vZp64-43" target="zEk0Qq_C4hLJaT2vZp64-49" edge="1">
          <mxGeometry relative="1" as="geometry">
            <mxPoint x="600" y="370" as="sourcePoint" />
            <mxPoint x="790" y="420" as="targetPoint" />
          </mxGeometry>
        </mxCell>
        <mxCell id="zEk0Qq_C4hLJaT2vZp64-59" value="содержит" style="resizable=0;html=1;whiteSpace=wrap;align=right;verticalAlign=bottom;" parent="zEk0Qq_C4hLJaT2vZp64-58" connectable="0" vertex="1">
          <mxGeometry x="1" relative="1" as="geometry">
            <mxPoint x="-9" y="-40" as="offset" />
          </mxGeometry>
        </mxCell>
        <mxCell id="Xqc_N_7rNXYaRye0o13W-1" value="" style="endArrow=oval;html=1;rounded=0;endFill=1;edgeStyle=orthogonalEdgeStyle;" parent="1" source="VgegklDGePFfX6aJZ7jm-12" target="zEk0Qq_C4hLJaT2vZp64-29" edge="1">
          <mxGeometry relative="1" as="geometry">
            <mxPoint x="160" y="370" as="sourcePoint" />
            <mxPoint x="320" y="370" as="targetPoint" />
          </mxGeometry>
        </mxCell>
        <mxCell id="Xqc_N_7rNXYaRye0o13W-2" value="состоит_в" style="resizable=0;html=1;whiteSpace=wrap;align=right;verticalAlign=bottom;" parent="Xqc_N_7rNXYaRye0o13W-1" connectable="0" vertex="1">
          <mxGeometry x="1" relative="1" as="geometry">
            <mxPoint x="10" y="-75" as="offset" />
          </mxGeometry>
        </mxCell>
        <mxCell id="Xqc_N_7rNXYaRye0o13W-3" value="" style="endArrow=oval;html=1;rounded=0;endFill=1;edgeStyle=orthogonalEdgeStyle;" parent="1" source="VgegklDGePFfX6aJZ7jm-12" target="zEk0Qq_C4hLJaT2vZp64-24" edge="1">
          <mxGeometry relative="1" as="geometry">
            <mxPoint x="300" y="360" as="sourcePoint" />
            <mxPoint x="460" y="360" as="targetPoint" />
          </mxGeometry>
        </mxCell>
        <mxCell id="Xqc_N_7rNXYaRye0o13W-4" value="содержит" style="resizable=0;html=1;whiteSpace=wrap;align=right;verticalAlign=bottom;" parent="Xqc_N_7rNXYaRye0o13W-3" connectable="0" vertex="1">
          <mxGeometry x="1" relative="1" as="geometry">
            <mxPoint x="-20" y="-65" as="offset" />
          </mxGeometry>
        </mxCell>
        <mxCell id="Xqc_N_7rNXYaRye0o13W-5" value="" style="endArrow=oval;html=1;rounded=0;endFill=1;edgeStyle=orthogonalEdgeStyle;" parent="1" source="VgegklDGePFfX6aJZ7jm-7" target="zEk0Qq_C4hLJaT2vZp64-31" edge="1">
          <mxGeometry relative="1" as="geometry">
            <mxPoint x="220" y="110" as="sourcePoint" />
            <mxPoint x="380" y="110" as="targetPoint" />
          </mxGeometry>
        </mxCell>
        <mxCell id="Xqc_N_7rNXYaRye0o13W-6" value="характеризуется" style="resizable=0;html=1;whiteSpace=wrap;align=right;verticalAlign=bottom;" parent="Xqc_N_7rNXYaRye0o13W-5" connectable="0" vertex="1">
          <mxGeometry x="1" relative="1" as="geometry">
            <mxPoint x="20" y="165" as="offset" />
          </mxGeometry>
        </mxCell>
        <mxCell id="Xqc_N_7rNXYaRye0o13W-7" value="" style="endArrow=oval;html=1;rounded=0;endFill=1;edgeStyle=orthogonalEdgeStyle;" parent="1" source="VgegklDGePFfX6aJZ7jm-7" target="zEk0Qq_C4hLJaT2vZp64-32" edge="1">
          <mxGeometry relative="1" as="geometry">
            <mxPoint x="270" y="230" as="sourcePoint" />
            <mxPoint x="430" y="230" as="targetPoint" />
          </mxGeometry>
        </mxCell>
        <mxCell id="Xqc_N_7rNXYaRye0o13W-8" value="идентифицируется извне как" style="resizable=0;html=1;whiteSpace=wrap;align=right;verticalAlign=bottom;" parent="Xqc_N_7rNXYaRye0o13W-7" connectable="0" vertex="1">
          <mxGeometry x="1" relative="1" as="geometry">
            <mxPoint x="-20" y="175" as="offset" />
          </mxGeometry>
        </mxCell>
        <mxCell id="Xqc_N_7rNXYaRye0o13W-9" value="" style="endArrow=oval;html=1;rounded=0;endFill=1;dashed=1;" parent="1" source="VgegklDGePFfX6aJZ7jm-9" target="zEk0Qq_C4hLJaT2vZp64-41" edge="1">
          <mxGeometry relative="1" as="geometry">
            <mxPoint x="310" y="325" as="sourcePoint" />
            <mxPoint x="580" y="309.58" as="targetPoint" />
          </mxGeometry>
        </mxCell>
        <mxCell id="Xqc_N_7rNXYaRye0o13W-10" value="присутствует" style="resizable=0;html=1;whiteSpace=wrap;align=right;verticalAlign=bottom;" parent="Xqc_N_7rNXYaRye0o13W-9" connectable="0" vertex="1">
          <mxGeometry x="1" relative="1" as="geometry">
            <mxPoint x="-60" y="15" as="offset" />
          </mxGeometry>
        </mxCell>
      </root>
    </mxGraphModel>
  </diagram>
</mxfile>
